<?xml version="1.0" encoding="UTF-8" standalone="no"?>
<!-- Created with Inkscape (http://www.inkscape.org/) -->

<svg
   xmlns:dc="http://purl.org/dc/elements/1.1/"
   xmlns:cc="http://creativecommons.org/ns#"
   xmlns:rdf="http://www.w3.org/1999/02/22-rdf-syntax-ns#"
   xmlns:svg="http://www.w3.org/2000/svg"
   xmlns="http://www.w3.org/2000/svg"
   xmlns:sodipodi="http://sodipodi.sourceforge.net/DTD/sodipodi-0.dtd"
   xmlns:inkscape="http://www.inkscape.org/namespaces/inkscape"
   width="100mm"
   height="100mm"
   viewBox="0 0 99.999999 100"
   version="1.1"
   id="svg8"
   inkscape:version="0.92.4 5da689c313, 2019-01-14"
   sodipodi:docname="icon.svg"
   inkscape:export-filename="/home/marco/git/firefox-scihubify/icons/logo_96px.png"
   inkscape:export-xdpi="24.379999"
   inkscape:export-ydpi="24.379999">
  <defs
     id="defs2" />
  <sodipodi:namedview
     id="base"
     pagecolor="#ffffff"
     bordercolor="#666666"
     borderopacity="1.0"
     inkscape:pageopacity="0.0"
     inkscape:pageshadow="2"
     inkscape:zoom="1.4"
     inkscape:cx="370.91304"
     inkscape:cy="183.42649"
     inkscape:document-units="mm"
     inkscape:current-layer="layer1"
     showgrid="false"
     fit-margin-top="10"
     fit-margin-left="10"
     fit-margin-right="10"
     fit-margin-bottom="10"
     inkscape:window-width="1598"
     inkscape:window-height="875"
     inkscape:window-x="0"
     inkscape:window-y="0"
     inkscape:window-maximized="0" />
  <metadata
     id="metadata5">
    <rdf:RDF>
      <cc:Work
         rdf:about="">
        <dc:format>image/svg+xml</dc:format>
        <dc:type
           rdf:resource="http://purl.org/dc/dcmitype/StillImage" />
        <dc:title></dc:title>
      </cc:Work>
    </rdf:RDF>
  </metadata>
  <g
     inkscape:label="Layer 1"
     inkscape:groupmode="layer"
     id="layer1"
     transform="translate(-32.096217,1.342775)"
     style="display:inline">
    <path
       style="fill:#630063;fill-opacity:1;stroke-width:0.31516519"
       d="m 55.288312,7.6978478 c -3.780249,0.2833683 -7.715998,0.8126069 -11.200679,3.1534992 -20.054594,13.472024 -9.734171,37.344049 4.27874,43.305054 2.677197,1.138861 5.791065,2.017217 9.216731,2.438222 4.04183,0.496728 7.357763,-0.514637 11.361956,-1.414553 4.842988,-0.917216 3.198538,4.046356 5.094352,5.471073 2.125064,3.667526 2.924362,-2.347619 5.468608,-0.711583 2.736006,3.287759 7.458265,1.65191 10.285958,4.609905 0.135446,2.008388 3.356762,3.402952 6.468272,4.342756 2.628105,2.562492 1.880482,5.793446 4.33907,8.724905 1.98233,3.339531 9.02342,2.385732 9.44757,5.479689 0.73345,0.840596 3.5702,3.341863 5.54555,2.954673 1.68075,2.40206 4.98306,4.650137 8.59872,3.163349 4.53241,0.267052 0.39288,-2.970423 -1.34685,-3.848464 0.17637,-2.44397 5.17291,5.424958 7.6483,2.309572 1.47895,-3.638473 0.63734,-5.078696 -0.30161,-6.036155 -1.89759,-1.707603 -1.21666,-1.341138 -2.23818,-2.285562 -8.56977,-7.613481 -17.22729,-15.197761 -25.98081,-22.627261 -3.313444,-2.618121 -5.219249,-4.98041 -8.189375,-7.378068 -0.68937,-0.432415 -2.777778,-2.862478 -3.813376,-3.417572 1.786227,-2.577604 -0.478348,-4.062155 -1.972243,-5.03218 -1.514701,-0.968579 -4.441602,0.963274 -3.805993,-2.866648 C 85.511573,24.646193 73.943409,6.2994571 55.288312,7.6978478 Z M 54.654845,20.402919 c 4.26381,1.9e-5 7.720303,3.456512 7.720323,7.720319 -2e-5,4.263804 -3.456513,7.720297 -7.720323,7.720315 -4.263799,-1.5e-5 -7.720293,-3.456508 -7.720312,-7.720315 9e-6,-4.263807 3.456513,-7.720303 7.720312,-7.720319 z m 24.186525,26.53115 c 0.231939,0.04159 1.36475,1.084547 2.198772,1.429939 -0.273878,0.619498 -1.09068,0.44501 -1.383773,-0.05663 -0.768733,-1.06257 -0.95416,-1.398261 -0.814999,-1.373307 z m 2.145833,1.972247 c 0.220257,-0.0824 4.224264,2.174687 4.185171,3.138109 -0.90056,0.584436 -2.566334,-1.936848 -3.63671,-2.662285 -0.448355,-0.312868 -0.59929,-0.456807 -0.548461,-0.475824 z m 4.679463,3.560995 c 0.309663,-0.02314 1.300524,0.562154 2.043037,1.825128 -1.98115,-1.170448 -2.352696,-1.801995 -2.043037,-1.825128 z m 2.202466,2.123057 c 4.823169,3.44207 9.10553,7.607684 13.641358,11.419816 2.74799,2.605205 6.56132,5.380831 8.57902,7.989315 -3.59972,-2.695315 -6.83496,-5.954852 -10.310573,-8.84925 -1.41716,-1.236179 -2.83986,-2.466634 -4.270127,-3.687802 -3.266331,-2.792997 -5.321521,-4.243683 -7.639678,-6.872079 z m 23.049538,19.833249 c 0.33504,0.03092 2.24146,1.442766 2.84449,2.54656 -0.65182,-0.256041 -1.12011,-0.802679 -1.66447,-1.215725 -1.10015,-0.984301 -1.35552,-1.347023 -1.18002,-1.330835 z m 3.33878,2.582877 c 0.13849,-0.02298 0.47429,0.272646 1.0883,1.220032 -0.74278,0.421874 -1.39297,-1.169515 -1.0883,-1.220032 z m 2.3385,2.179071 c 0.19492,-0.01736 0.84606,0.489064 1.46811,1.562901 l -0.0486,0.07572 -0.14897,-0.05847 c -1.2041,-1.021886 -1.46542,-1.562769 -1.2705,-1.580137 z m 2.55271,2.434528 c 0.26326,-0.04887 1.20759,0.362436 1.68294,1.192335 l -0.52014,-0.22283 c -1.16018,-0.615297 -1.36755,-0.93149 -1.1628,-0.969505 z"
       id="path828"
       inkscape:connector-curvature="0"
       sodipodi:nodetypes="ssssccccccccccccccccccsccccccccccccccccccccccccsccccccccccccccc" />
  </g>
</svg>
